<mxfile host="Electron" modified="2024-04-26T07:45:15.747Z" agent="Mozilla/5.0 (Macintosh; Intel Mac OS X 10_15_7) AppleWebKit/537.36 (KHTML, like Gecko) draw.io/24.2.5 Chrome/120.0.6099.109 Electron/28.1.0 Safari/537.36" etag="uTB3fhodTQe9c-VkeqAt" version="24.2.5" type="device">
  <diagram name="Page-1" id="aEIRnYL358hzib7ZzWH9">
    <mxGraphModel dx="1975" dy="1156" grid="1" gridSize="10" guides="1" tooltips="1" connect="1" arrows="1" fold="1" page="1" pageScale="1" pageWidth="1169" pageHeight="827" math="0" shadow="0">
      <root>
        <mxCell id="0" />
        <mxCell id="1" parent="0" />
        <mxCell id="HX13t7BnB7H5HP9Sa4q4-54" value="" style="whiteSpace=wrap;html=1;aspect=fixed;fillColor=#f5f5f5;strokeColor=none;fontColor=#333333;" vertex="1" parent="1">
          <mxGeometry x="330" y="27" width="800" height="800" as="geometry" />
        </mxCell>
        <mxCell id="HX13t7BnB7H5HP9Sa4q4-50" value="" style="group" vertex="1" connectable="0" parent="1">
          <mxGeometry x="570" y="267" width="320" height="320" as="geometry" />
        </mxCell>
        <mxCell id="HX13t7BnB7H5HP9Sa4q4-1" value="" style="ellipse;whiteSpace=wrap;html=1;fillColor=none;strokeWidth=4;rotation=30;" vertex="1" parent="HX13t7BnB7H5HP9Sa4q4-50">
          <mxGeometry x="35.120000000000005" y="120" width="250" height="80" as="geometry" />
        </mxCell>
        <mxCell id="HX13t7BnB7H5HP9Sa4q4-2" value="" style="ellipse;whiteSpace=wrap;html=1;fillColor=none;strokeWidth=4;rotation=-210;" vertex="1" parent="HX13t7BnB7H5HP9Sa4q4-50">
          <mxGeometry x="35.120000000000005" y="120" width="250" height="80" as="geometry" />
        </mxCell>
        <mxCell id="HX13t7BnB7H5HP9Sa4q4-3" value="" style="ellipse;whiteSpace=wrap;html=1;fillColor=none;strokeWidth=4;rotation=-90;" vertex="1" parent="HX13t7BnB7H5HP9Sa4q4-50">
          <mxGeometry x="35.120000000000005" y="120" width="250" height="80" as="geometry" />
        </mxCell>
        <mxCell id="HX13t7BnB7H5HP9Sa4q4-4" value="" style="whiteSpace=wrap;html=1;aspect=fixed;fillColor=none;strokeWidth=4;rounded=1;arcSize=8;" vertex="1" parent="HX13t7BnB7H5HP9Sa4q4-50">
          <mxGeometry x="20.120000000000005" y="20" width="280" height="280" as="geometry" />
        </mxCell>
        <mxCell id="HX13t7BnB7H5HP9Sa4q4-5" value="" style="ellipse;whiteSpace=wrap;html=1;aspect=fixed;strokeWidth=4;" vertex="1" parent="HX13t7BnB7H5HP9Sa4q4-50">
          <mxGeometry x="225.12" y="80" width="20" height="20" as="geometry" />
        </mxCell>
        <mxCell id="HX13t7BnB7H5HP9Sa4q4-8" value="" style="ellipse;whiteSpace=wrap;html=1;aspect=fixed;strokeWidth=4;" vertex="1" parent="HX13t7BnB7H5HP9Sa4q4-50">
          <mxGeometry x="175.12" y="250" width="20" height="20" as="geometry" />
        </mxCell>
        <mxCell id="HX13t7BnB7H5HP9Sa4q4-9" value="" style="ellipse;whiteSpace=wrap;html=1;aspect=fixed;strokeWidth=4;" vertex="1" parent="HX13t7BnB7H5HP9Sa4q4-50">
          <mxGeometry x="50.120000000000005" y="120" width="20" height="20" as="geometry" />
        </mxCell>
        <mxCell id="HX13t7BnB7H5HP9Sa4q4-19" value="" style="group" vertex="1" connectable="0" parent="HX13t7BnB7H5HP9Sa4q4-50">
          <mxGeometry x="80.23500000000001" y="300" width="159.76999999999998" height="20" as="geometry" />
        </mxCell>
        <mxCell id="HX13t7BnB7H5HP9Sa4q4-10" value="" style="endArrow=none;html=1;rounded=0;strokeWidth=4;curved=0;" edge="1" parent="HX13t7BnB7H5HP9Sa4q4-19">
          <mxGeometry width="50" height="50" relative="1" as="geometry">
            <mxPoint y="20" as="sourcePoint" />
            <mxPoint as="targetPoint" />
          </mxGeometry>
        </mxCell>
        <mxCell id="HX13t7BnB7H5HP9Sa4q4-11" value="" style="endArrow=none;html=1;rounded=0;strokeWidth=4;curved=0;" edge="1" parent="HX13t7BnB7H5HP9Sa4q4-19">
          <mxGeometry width="50" height="50" relative="1" as="geometry">
            <mxPoint x="20" y="20" as="sourcePoint" />
            <mxPoint x="20" as="targetPoint" />
          </mxGeometry>
        </mxCell>
        <mxCell id="HX13t7BnB7H5HP9Sa4q4-12" value="" style="endArrow=none;html=1;rounded=0;strokeWidth=4;curved=0;" edge="1" parent="HX13t7BnB7H5HP9Sa4q4-19">
          <mxGeometry width="50" height="50" relative="1" as="geometry">
            <mxPoint x="40" y="20" as="sourcePoint" />
            <mxPoint x="40" as="targetPoint" />
          </mxGeometry>
        </mxCell>
        <mxCell id="HX13t7BnB7H5HP9Sa4q4-13" value="" style="endArrow=none;html=1;rounded=0;strokeWidth=4;curved=0;" edge="1" parent="HX13t7BnB7H5HP9Sa4q4-19">
          <mxGeometry width="50" height="50" relative="1" as="geometry">
            <mxPoint x="60" y="20" as="sourcePoint" />
            <mxPoint x="60" as="targetPoint" />
          </mxGeometry>
        </mxCell>
        <mxCell id="HX13t7BnB7H5HP9Sa4q4-14" value="" style="endArrow=none;html=1;rounded=0;strokeWidth=4;curved=0;" edge="1" parent="HX13t7BnB7H5HP9Sa4q4-19">
          <mxGeometry width="50" height="50" relative="1" as="geometry">
            <mxPoint x="80" y="20" as="sourcePoint" />
            <mxPoint x="80" as="targetPoint" />
          </mxGeometry>
        </mxCell>
        <mxCell id="HX13t7BnB7H5HP9Sa4q4-15" value="" style="endArrow=none;html=1;rounded=0;strokeWidth=4;curved=0;" edge="1" parent="HX13t7BnB7H5HP9Sa4q4-19">
          <mxGeometry width="50" height="50" relative="1" as="geometry">
            <mxPoint x="100" y="20" as="sourcePoint" />
            <mxPoint x="100" as="targetPoint" />
          </mxGeometry>
        </mxCell>
        <mxCell id="HX13t7BnB7H5HP9Sa4q4-16" value="" style="endArrow=none;html=1;rounded=0;strokeWidth=4;curved=0;" edge="1" parent="HX13t7BnB7H5HP9Sa4q4-19">
          <mxGeometry width="50" height="50" relative="1" as="geometry">
            <mxPoint x="120" y="20" as="sourcePoint" />
            <mxPoint x="120" as="targetPoint" />
          </mxGeometry>
        </mxCell>
        <mxCell id="HX13t7BnB7H5HP9Sa4q4-17" value="" style="endArrow=none;html=1;rounded=0;strokeWidth=4;curved=0;" edge="1" parent="HX13t7BnB7H5HP9Sa4q4-19">
          <mxGeometry width="50" height="50" relative="1" as="geometry">
            <mxPoint x="140" y="20" as="sourcePoint" />
            <mxPoint x="140" as="targetPoint" />
          </mxGeometry>
        </mxCell>
        <mxCell id="HX13t7BnB7H5HP9Sa4q4-18" value="" style="endArrow=none;html=1;rounded=0;strokeWidth=4;curved=0;" edge="1" parent="HX13t7BnB7H5HP9Sa4q4-19">
          <mxGeometry width="50" height="50" relative="1" as="geometry">
            <mxPoint x="159.76999999999998" y="20" as="sourcePoint" />
            <mxPoint x="159.76999999999998" as="targetPoint" />
          </mxGeometry>
        </mxCell>
        <mxCell id="HX13t7BnB7H5HP9Sa4q4-20" value="" style="group" vertex="1" connectable="0" parent="HX13t7BnB7H5HP9Sa4q4-50">
          <mxGeometry x="80.23500000000001" width="159.76999999999998" height="20" as="geometry" />
        </mxCell>
        <mxCell id="HX13t7BnB7H5HP9Sa4q4-21" value="" style="endArrow=none;html=1;rounded=0;strokeWidth=4;curved=0;" edge="1" parent="HX13t7BnB7H5HP9Sa4q4-20">
          <mxGeometry width="50" height="50" relative="1" as="geometry">
            <mxPoint y="20" as="sourcePoint" />
            <mxPoint as="targetPoint" />
          </mxGeometry>
        </mxCell>
        <mxCell id="HX13t7BnB7H5HP9Sa4q4-22" value="" style="endArrow=none;html=1;rounded=0;strokeWidth=4;curved=0;" edge="1" parent="HX13t7BnB7H5HP9Sa4q4-20">
          <mxGeometry width="50" height="50" relative="1" as="geometry">
            <mxPoint x="20" y="20" as="sourcePoint" />
            <mxPoint x="20" as="targetPoint" />
          </mxGeometry>
        </mxCell>
        <mxCell id="HX13t7BnB7H5HP9Sa4q4-23" value="" style="endArrow=none;html=1;rounded=0;strokeWidth=4;curved=0;" edge="1" parent="HX13t7BnB7H5HP9Sa4q4-20">
          <mxGeometry width="50" height="50" relative="1" as="geometry">
            <mxPoint x="40" y="20" as="sourcePoint" />
            <mxPoint x="40" as="targetPoint" />
          </mxGeometry>
        </mxCell>
        <mxCell id="HX13t7BnB7H5HP9Sa4q4-24" value="" style="endArrow=none;html=1;rounded=0;strokeWidth=4;curved=0;" edge="1" parent="HX13t7BnB7H5HP9Sa4q4-20">
          <mxGeometry width="50" height="50" relative="1" as="geometry">
            <mxPoint x="60" y="20" as="sourcePoint" />
            <mxPoint x="60" as="targetPoint" />
          </mxGeometry>
        </mxCell>
        <mxCell id="HX13t7BnB7H5HP9Sa4q4-25" value="" style="endArrow=none;html=1;rounded=0;strokeWidth=4;curved=0;" edge="1" parent="HX13t7BnB7H5HP9Sa4q4-20">
          <mxGeometry width="50" height="50" relative="1" as="geometry">
            <mxPoint x="80" y="20" as="sourcePoint" />
            <mxPoint x="80" as="targetPoint" />
          </mxGeometry>
        </mxCell>
        <mxCell id="HX13t7BnB7H5HP9Sa4q4-26" value="" style="endArrow=none;html=1;rounded=0;strokeWidth=4;curved=0;" edge="1" parent="HX13t7BnB7H5HP9Sa4q4-20">
          <mxGeometry width="50" height="50" relative="1" as="geometry">
            <mxPoint x="100" y="20" as="sourcePoint" />
            <mxPoint x="100" as="targetPoint" />
          </mxGeometry>
        </mxCell>
        <mxCell id="HX13t7BnB7H5HP9Sa4q4-27" value="" style="endArrow=none;html=1;rounded=0;strokeWidth=4;curved=0;" edge="1" parent="HX13t7BnB7H5HP9Sa4q4-20">
          <mxGeometry width="50" height="50" relative="1" as="geometry">
            <mxPoint x="120" y="20" as="sourcePoint" />
            <mxPoint x="120" as="targetPoint" />
          </mxGeometry>
        </mxCell>
        <mxCell id="HX13t7BnB7H5HP9Sa4q4-28" value="" style="endArrow=none;html=1;rounded=0;strokeWidth=4;curved=0;" edge="1" parent="HX13t7BnB7H5HP9Sa4q4-20">
          <mxGeometry width="50" height="50" relative="1" as="geometry">
            <mxPoint x="140" y="20" as="sourcePoint" />
            <mxPoint x="140" as="targetPoint" />
          </mxGeometry>
        </mxCell>
        <mxCell id="HX13t7BnB7H5HP9Sa4q4-29" value="" style="endArrow=none;html=1;rounded=0;strokeWidth=4;curved=0;" edge="1" parent="HX13t7BnB7H5HP9Sa4q4-20">
          <mxGeometry width="50" height="50" relative="1" as="geometry">
            <mxPoint x="159.76999999999998" y="20" as="sourcePoint" />
            <mxPoint x="159.76999999999998" as="targetPoint" />
          </mxGeometry>
        </mxCell>
        <mxCell id="HX13t7BnB7H5HP9Sa4q4-30" value="" style="group;rotation=-90;" vertex="1" connectable="0" parent="HX13t7BnB7H5HP9Sa4q4-50">
          <mxGeometry x="-69.88499999999999" y="150" width="159.76999999999998" height="20" as="geometry" />
        </mxCell>
        <mxCell id="HX13t7BnB7H5HP9Sa4q4-31" value="" style="endArrow=none;html=1;rounded=0;strokeWidth=4;curved=0;" edge="1" parent="HX13t7BnB7H5HP9Sa4q4-30">
          <mxGeometry width="50" height="50" relative="1" as="geometry">
            <mxPoint x="90" y="90" as="sourcePoint" />
            <mxPoint x="70" y="90" as="targetPoint" />
          </mxGeometry>
        </mxCell>
        <mxCell id="HX13t7BnB7H5HP9Sa4q4-32" value="" style="endArrow=none;html=1;rounded=0;strokeWidth=4;curved=0;" edge="1" parent="HX13t7BnB7H5HP9Sa4q4-30">
          <mxGeometry width="50" height="50" relative="1" as="geometry">
            <mxPoint x="90" y="70" as="sourcePoint" />
            <mxPoint x="70" y="70" as="targetPoint" />
          </mxGeometry>
        </mxCell>
        <mxCell id="HX13t7BnB7H5HP9Sa4q4-33" value="" style="endArrow=none;html=1;rounded=0;strokeWidth=4;curved=0;" edge="1" parent="HX13t7BnB7H5HP9Sa4q4-30">
          <mxGeometry width="50" height="50" relative="1" as="geometry">
            <mxPoint x="90" y="50" as="sourcePoint" />
            <mxPoint x="70" y="50" as="targetPoint" />
          </mxGeometry>
        </mxCell>
        <mxCell id="HX13t7BnB7H5HP9Sa4q4-34" value="" style="endArrow=none;html=1;rounded=0;strokeWidth=4;curved=0;" edge="1" parent="HX13t7BnB7H5HP9Sa4q4-30">
          <mxGeometry width="50" height="50" relative="1" as="geometry">
            <mxPoint x="90" y="30" as="sourcePoint" />
            <mxPoint x="70" y="30" as="targetPoint" />
          </mxGeometry>
        </mxCell>
        <mxCell id="HX13t7BnB7H5HP9Sa4q4-35" value="" style="endArrow=none;html=1;rounded=0;strokeWidth=4;curved=0;" edge="1" parent="HX13t7BnB7H5HP9Sa4q4-30">
          <mxGeometry width="50" height="50" relative="1" as="geometry">
            <mxPoint x="90" y="10" as="sourcePoint" />
            <mxPoint x="70" y="10" as="targetPoint" />
          </mxGeometry>
        </mxCell>
        <mxCell id="HX13t7BnB7H5HP9Sa4q4-36" value="" style="endArrow=none;html=1;rounded=0;strokeWidth=4;curved=0;" edge="1" parent="HX13t7BnB7H5HP9Sa4q4-30">
          <mxGeometry width="50" height="50" relative="1" as="geometry">
            <mxPoint x="90" y="-10" as="sourcePoint" />
            <mxPoint x="70" y="-10" as="targetPoint" />
          </mxGeometry>
        </mxCell>
        <mxCell id="HX13t7BnB7H5HP9Sa4q4-37" value="" style="endArrow=none;html=1;rounded=0;strokeWidth=4;curved=0;" edge="1" parent="HX13t7BnB7H5HP9Sa4q4-30">
          <mxGeometry width="50" height="50" relative="1" as="geometry">
            <mxPoint x="90" y="-30" as="sourcePoint" />
            <mxPoint x="70" y="-30" as="targetPoint" />
          </mxGeometry>
        </mxCell>
        <mxCell id="HX13t7BnB7H5HP9Sa4q4-38" value="" style="endArrow=none;html=1;rounded=0;strokeWidth=4;curved=0;" edge="1" parent="HX13t7BnB7H5HP9Sa4q4-30">
          <mxGeometry width="50" height="50" relative="1" as="geometry">
            <mxPoint x="90" y="-50" as="sourcePoint" />
            <mxPoint x="70" y="-50" as="targetPoint" />
          </mxGeometry>
        </mxCell>
        <mxCell id="HX13t7BnB7H5HP9Sa4q4-39" value="" style="endArrow=none;html=1;rounded=0;strokeWidth=4;curved=0;" edge="1" parent="HX13t7BnB7H5HP9Sa4q4-30">
          <mxGeometry width="50" height="50" relative="1" as="geometry">
            <mxPoint x="90" y="-70" as="sourcePoint" />
            <mxPoint x="70" y="-70" as="targetPoint" />
          </mxGeometry>
        </mxCell>
        <mxCell id="HX13t7BnB7H5HP9Sa4q4-40" value="" style="group;rotation=90;" vertex="1" connectable="0" parent="HX13t7BnB7H5HP9Sa4q4-50">
          <mxGeometry x="230.115" y="150" width="159.76999999999998" height="20" as="geometry" />
        </mxCell>
        <mxCell id="HX13t7BnB7H5HP9Sa4q4-41" value="" style="endArrow=none;html=1;rounded=0;strokeWidth=4;curved=0;" edge="1" parent="HX13t7BnB7H5HP9Sa4q4-40">
          <mxGeometry width="50" height="50" relative="1" as="geometry">
            <mxPoint x="70" y="-70" as="sourcePoint" />
            <mxPoint x="90" y="-70" as="targetPoint" />
          </mxGeometry>
        </mxCell>
        <mxCell id="HX13t7BnB7H5HP9Sa4q4-42" value="" style="endArrow=none;html=1;rounded=0;strokeWidth=4;curved=0;" edge="1" parent="HX13t7BnB7H5HP9Sa4q4-40">
          <mxGeometry width="50" height="50" relative="1" as="geometry">
            <mxPoint x="70" y="-50" as="sourcePoint" />
            <mxPoint x="90" y="-50" as="targetPoint" />
          </mxGeometry>
        </mxCell>
        <mxCell id="HX13t7BnB7H5HP9Sa4q4-43" value="" style="endArrow=none;html=1;rounded=0;strokeWidth=4;curved=0;" edge="1" parent="HX13t7BnB7H5HP9Sa4q4-40">
          <mxGeometry width="50" height="50" relative="1" as="geometry">
            <mxPoint x="70" y="-30" as="sourcePoint" />
            <mxPoint x="90" y="-30" as="targetPoint" />
          </mxGeometry>
        </mxCell>
        <mxCell id="HX13t7BnB7H5HP9Sa4q4-44" value="" style="endArrow=none;html=1;rounded=0;strokeWidth=4;curved=0;" edge="1" parent="HX13t7BnB7H5HP9Sa4q4-40">
          <mxGeometry width="50" height="50" relative="1" as="geometry">
            <mxPoint x="70" y="-10" as="sourcePoint" />
            <mxPoint x="90" y="-10" as="targetPoint" />
          </mxGeometry>
        </mxCell>
        <mxCell id="HX13t7BnB7H5HP9Sa4q4-45" value="" style="endArrow=none;html=1;rounded=0;strokeWidth=4;curved=0;" edge="1" parent="HX13t7BnB7H5HP9Sa4q4-40">
          <mxGeometry width="50" height="50" relative="1" as="geometry">
            <mxPoint x="70" y="10" as="sourcePoint" />
            <mxPoint x="90" y="10" as="targetPoint" />
          </mxGeometry>
        </mxCell>
        <mxCell id="HX13t7BnB7H5HP9Sa4q4-46" value="" style="endArrow=none;html=1;rounded=0;strokeWidth=4;curved=0;" edge="1" parent="HX13t7BnB7H5HP9Sa4q4-40">
          <mxGeometry width="50" height="50" relative="1" as="geometry">
            <mxPoint x="70" y="30" as="sourcePoint" />
            <mxPoint x="90" y="30" as="targetPoint" />
          </mxGeometry>
        </mxCell>
        <mxCell id="HX13t7BnB7H5HP9Sa4q4-47" value="" style="endArrow=none;html=1;rounded=0;strokeWidth=4;curved=0;" edge="1" parent="HX13t7BnB7H5HP9Sa4q4-40">
          <mxGeometry width="50" height="50" relative="1" as="geometry">
            <mxPoint x="70" y="50" as="sourcePoint" />
            <mxPoint x="90" y="50" as="targetPoint" />
          </mxGeometry>
        </mxCell>
        <mxCell id="HX13t7BnB7H5HP9Sa4q4-48" value="" style="endArrow=none;html=1;rounded=0;strokeWidth=4;curved=0;" edge="1" parent="HX13t7BnB7H5HP9Sa4q4-40">
          <mxGeometry width="50" height="50" relative="1" as="geometry">
            <mxPoint x="70" y="70" as="sourcePoint" />
            <mxPoint x="90" y="70" as="targetPoint" />
          </mxGeometry>
        </mxCell>
        <mxCell id="HX13t7BnB7H5HP9Sa4q4-49" value="" style="endArrow=none;html=1;rounded=0;strokeWidth=4;curved=0;" edge="1" parent="HX13t7BnB7H5HP9Sa4q4-40">
          <mxGeometry width="50" height="50" relative="1" as="geometry">
            <mxPoint x="70" y="90" as="sourcePoint" />
            <mxPoint x="90" y="90" as="targetPoint" />
          </mxGeometry>
        </mxCell>
      </root>
    </mxGraphModel>
  </diagram>
</mxfile>
